<svg width="42" height="42" viewBox="0 0 42 42" fill="none" xmlns="http://www.w3.org/2000/svg">
<path d="M20.9999 4.375C23.0581 4.37437 25.0623 5.03351 26.7183 6.25567C28.3743 7.47784 29.595 9.19866 30.2011 11.1656C30.8072 13.1325 30.7668 15.2419 30.0859 17.1842C29.4051 19.1264 28.1195 20.7993 26.4179 21.9572C29.3713 23.0405 31.9329 24.9829 33.773 27.5344C35.6131 30.0858 36.6475 33.1297 36.7429 36.274C36.7519 36.4485 36.7258 36.6231 36.6664 36.7874C36.607 36.9518 36.5153 37.1026 36.3968 37.231C36.2783 37.3595 36.1353 37.463 35.9763 37.5354C35.8172 37.6079 35.6453 37.6478 35.4707 37.653C35.296 37.6581 35.122 37.6283 34.959 37.5653C34.796 37.5023 34.6472 37.4074 34.5214 37.2861C34.3955 37.1648 34.2952 37.0196 34.2262 36.8591C34.1572 36.6985 34.121 36.5258 34.1197 36.351C34.0155 32.941 32.5876 29.7057 30.1387 27.3305C27.6899 24.9553 24.4124 23.6269 21.0008 23.6269C17.5893 23.6269 14.3118 24.9553 11.8629 27.3305C9.41399 29.7057 7.98615 32.941 7.88194 36.351C7.8715 36.6991 7.7232 37.0288 7.46967 37.2675C7.21615 37.5063 6.87816 37.6346 6.53006 37.6241C6.18197 37.6137 5.85228 37.4654 5.61352 37.2119C5.37476 36.9583 5.2465 36.6203 5.25694 36.2722C5.35275 33.1282 6.38725 30.0848 8.22732 27.5336C10.0674 24.9825 12.6288 23.0404 15.5819 21.9572C13.8804 20.7993 12.5948 19.1264 11.9139 17.1842C11.2331 15.2419 11.1927 13.1325 11.7988 11.1656C12.4049 9.19866 13.6256 7.47784 15.2816 6.25567C16.9376 5.03351 18.9418 4.37437 20.9999 4.375ZM13.9999 14C13.9999 15.8565 14.7374 17.637 16.0502 18.9497C17.3629 20.2625 19.1434 21 20.9999 21C22.8565 21 24.6369 20.2625 25.9497 18.9497C27.2624 17.637 27.9999 15.8565 27.9999 14C27.9999 12.1435 27.2624 10.363 25.9497 9.05025C24.6369 7.7375 22.8565 7 20.9999 7C19.1434 7 17.3629 7.7375 16.0502 9.05025C14.7374 10.363 13.9999 12.1435 13.9999 14Z" fill="#0B2C3B"/>
</svg>
