<svg width="42" height="42" viewBox="0 0 42 42" fill="none" xmlns="http://www.w3.org/2000/svg">
<g clip-path="url(#clip0_889_967)">
<path d="M41.9998 20.2963V21.7046L41.9592 21.9304C41.8909 22.5459 41.8423 23.1615 41.7478 23.7626C41.4252 25.7132 40.7262 27.5823 39.6898 29.2659C38.1658 31.7961 35.9504 33.8381 33.3045 35.1512C31.7646 35.9247 30.101 36.4222 28.3892 36.6212C28.006 36.6684 27.624 36.7104 27.2473 36.7511H12.4883C12.4135 36.738 12.3452 36.717 12.2691 36.7104C10.7892 36.6209 9.33729 36.2666 7.98247 35.6644C5.00835 34.3388 2.79416 32.1981 1.34516 29.2528C0.708201 27.948 0.29471 26.5456 0.12191 25.104L-0.00146484 24.0514V22.6838C0.0116602 22.6089 0.0326602 22.5328 0.0392227 22.458C0.114035 21.1521 0.380473 19.8737 0.84641 18.6504C2.09722 15.3626 4.28516 12.9214 7.38791 11.3359C8.97989 10.5292 10.7251 10.0702 12.508 9.98925C13.39 9.94857 14.272 9.98925 15.1395 10.1126C15.1852 10.1179 15.2315 10.1133 15.2752 10.099C15.319 10.0847 15.3591 10.0612 15.3928 10.0299C16.6331 8.73533 18.0878 7.66477 19.6926 6.8655C21.2411 6.08666 22.914 5.58472 24.6355 5.38238C25.0463 5.33513 25.4558 5.29313 25.8587 5.25244H27.1161C27.1988 5.26557 27.2867 5.28 27.3628 5.28657C27.9915 5.36138 28.6137 5.40994 29.2358 5.51888C31.1428 5.847 32.9751 6.5505 34.6092 7.59C37.1256 9.15925 39.1415 11.4147 40.4196 14.0908C41.1848 15.6632 41.677 17.3589 41.8752 19.0954L41.9985 20.2989L41.9998 20.2963ZM18.5113 11.1968C18.5389 11.2309 18.5455 11.2519 18.5586 11.2519C19.4196 11.6889 20.2465 12.1956 21.0261 12.7691C21.0733 12.8033 21.1967 12.7901 21.2584 12.756C23.3912 11.3753 25.7157 10.9041 28.2042 11.3477C30.6441 11.7926 32.6338 13.029 34.1511 15.0122C35.8665 17.2539 36.5228 19.791 36.0516 22.6063C35.73 24.4937 34.9845 26.1947 33.7206 27.6109C31.4106 30.2018 28.5178 31.2754 25.1145 30.8239C23.0224 30.543 21.2112 29.6203 19.7136 28.0821C17.7921 26.1133 15.8575 24.1511 13.9307 22.1824C13.6708 21.9159 13.3913 21.7112 13.0212 21.6626C12.7113 21.6197 12.3958 21.6786 12.1222 21.8303C11.8486 21.982 11.6317 22.2184 11.5039 22.5039C11.2572 23.0237 11.2926 23.6183 11.832 24.1577C13.978 26.3036 16.1042 28.4706 18.2515 30.6178C18.6203 30.9866 19.0167 31.3292 19.434 31.6363C20.9998 32.7913 22.7704 33.4344 24.684 33.6943C26.1882 33.8925 27.6778 33.8518 29.1544 33.5093C31.9776 32.8661 34.3152 31.404 36.154 29.1413C37.6591 27.3039 38.6141 25.0786 38.9089 22.7218C39.0985 21.3465 39.0617 19.9495 38.8 18.5861C38.3695 16.3641 37.4468 14.3756 35.9637 12.6799C33.1339 9.44588 29.5718 8.00344 25.3337 8.325C23.7137 8.46185 22.1399 8.9343 20.7124 9.71232C19.9283 10.124 19.1923 10.6215 18.5179 11.1954L18.5113 11.1968ZM17.4797 33.756C17.418 33.7009 17.3629 33.6471 17.3025 33.5919C16.4271 32.7506 15.5451 31.9106 14.6775 31.0562C14.6071 30.9781 14.5204 30.9162 14.4236 30.875C14.3269 30.8337 14.2223 30.8141 14.1171 30.8173C13.2351 30.8383 12.3597 30.8449 11.4921 30.6467C7.18579 29.6558 4.68285 24.8914 6.26966 20.7006C7.52047 17.3983 10.9868 15.3889 14.4045 16.0044C15.9362 16.2853 17.2828 16.9481 18.3893 18.1031C19.7359 19.518 21.1167 20.8856 22.4843 22.2874C22.7914 22.6024 23.1471 22.752 23.5776 22.6903C24.1249 22.6076 24.5685 22.3412 24.7667 21.7873C24.9649 21.24 24.8691 20.7281 24.4662 20.3108C23.0368 18.8408 21.643 17.3301 20.1598 15.9218C17.275 13.1878 13.8782 12.3741 10.1179 13.5356C5.0661 15.1014 2.10641 20.4053 3.26141 25.6421C4.31403 30.4209 8.42216 33.7639 13.222 33.7704H17.2487C17.3104 33.7704 17.3787 33.7639 17.481 33.7573L17.4797 33.756Z" fill="#0B2C3B"/>
</g>
<defs>
<clipPath id="clip0_889_967">
<rect width="42" height="42" fill="white"/>
</clipPath>
</defs>
</svg>
