<svg width="42" height="42" viewBox="0 0 42 42" fill="none" xmlns="http://www.w3.org/2000/svg">
<path d="M34.895 9.7825V32.1825C34.895 32.9642 34.6675 33.6642 34.2125 34.2825C33.7575 34.8892 33.145 35.2975 32.375 35.5075L22.3475 38.395C22.2075 38.43 22.05 38.465 21.875 38.5H21.49C21.105 38.5 20.755 38.4475 20.44 38.3425C20.125 38.2375 19.8041 38.0975 19.4775 37.9225L12.915 34.2125C12.67 34.0725 12.4775 33.8917 12.3375 33.67C12.1975 33.4483 12.1275 33.1975 12.1275 32.9175C12.1275 32.4975 12.2791 32.1417 12.5825 31.85C12.8741 31.5583 13.23 31.4125 13.65 31.4125H22.155V10.745L15.75 13.02C15.2483 13.2067 14.84 13.5333 14.525 14C14.21 14.4433 14.0525 14.9392 14.0525 15.4875V27.265C14.0525 27.755 13.93 28.1983 13.685 28.595C13.4516 28.9917 13.1191 29.3067 12.6875 29.54L9.67748 31.185C9.39748 31.3367 9.11748 31.4125 8.83748 31.4125C8.35915 31.4125 7.95081 31.2433 7.61248 30.905C7.27415 30.5667 7.10498 30.1525 7.10498 29.6625V13.0725C7.10498 12.4658 7.26248 11.9 7.57748 11.375C7.90415 10.7917 8.32998 10.3483 8.85498 10.045L19.635 3.92C19.88 3.78 20.1425 3.675 20.4225 3.605C20.7025 3.535 20.9825 3.5 21.2625 3.5C21.4608 3.5 21.6416 3.5175 21.805 3.5525C21.9683 3.57583 22.1491 3.61667 22.3475 3.675L32.375 6.4575C32.76 6.5625 33.1041 6.72 33.4075 6.93C33.7108 7.14 33.9733 7.39083 34.195 7.6825C34.4283 7.98583 34.6033 8.3125 34.72 8.6625C34.8366 9.02417 34.895 9.3975 34.895 9.7825ZM32.585 32.1825V9.7825C32.585 9.51417 32.515 9.28083 32.375 9.0825C32.2 8.86083 31.9841 8.72667 31.7275 8.68L26.7925 7.315C26.4308 7.21 26.0458 7.105 25.6375 7C25.2525 6.87167 24.8733 6.76083 24.5 6.6675V35.3675L31.7275 33.25C31.9841 33.2033 32.2 33.0808 32.375 32.8825C32.515 32.6842 32.585 32.4508 32.585 32.1825Z" fill="#0B2C3B"/>
</svg>
