<svg width="40" height="40" viewBox="0 0 40 40" fill="none" xmlns="http://www.w3.org/2000/svg">
<g clip-path="url(#clip0_889_992)">
<path fill-rule="evenodd" clip-rule="evenodd" d="M28.3332 6.6665C29.6049 6.6665 30.6566 7.38984 31.4266 8.14984C32.2282 8.93817 32.9632 9.99817 33.6165 11.1665C34.9282 13.5098 36.0699 16.5715 36.8249 19.5965C37.5749 22.5982 37.9899 25.7332 37.7249 28.1982C37.4582 30.6732 36.1832 33.3332 33.3332 33.3332C30.8732 33.3332 28.9132 32.0665 27.3099 30.7815L26.7249 30.2998L25.9049 29.6082L25.1649 28.9948C23.4665 27.6198 21.9582 26.6665 19.9999 26.6665C18.0415 26.6665 16.5332 27.6198 14.8349 28.9948L14.0949 29.6082L13.2749 30.2998L12.6915 30.7815C11.0849 32.0665 9.12488 33.3332 6.66655 33.3332C3.81488 33.3332 2.53988 30.6732 2.27488 28.1982C2.01155 25.7315 2.42488 22.5982 3.17488 19.5965C3.92988 16.5715 5.07155 13.5098 6.38321 11.1648C7.03655 9.99817 7.77155 8.93817 8.57321 8.14817C9.34321 7.38984 10.3949 6.6665 11.6665 6.6665C12.5249 6.6665 13.3632 6.8715 14.1882 7.1165L15.1749 7.41817C15.3399 7.46817 15.5032 7.51817 15.6665 7.56317C17.1082 7.9765 18.5832 8.33317 19.9999 8.33317C21.4165 8.33317 22.8915 7.9765 24.3332 7.56317L25.8082 7.11817C26.6382 6.87317 27.4832 6.6665 28.3332 6.6665ZM28.3332 9.99984C27.6949 9.99984 27.0282 10.1932 26.3815 10.4048L25.6182 10.6565C25.496 10.6962 25.3733 10.734 25.2499 10.7698C23.7749 11.1898 21.9165 11.6665 19.9999 11.6665C18.0832 11.6665 16.2249 11.1898 14.7499 10.7698L14.3832 10.6565L13.6182 10.4048C12.9715 10.1915 12.3049 9.99984 11.6665 9.99984C10.9699 10.1298 10.3449 10.9748 9.87321 11.7582L9.60988 12.2165L9.29322 12.7932C8.15655 14.8232 7.10988 17.5932 6.40988 20.4048C5.75155 23.0315 5.43155 25.5482 5.55321 27.4215L5.59655 27.9098L5.62988 28.2032L5.67988 28.5498C5.79488 29.2182 6.04321 29.9998 6.66655 29.9998C8.01988 29.9998 9.14988 29.3265 10.5549 28.2098L11.2265 27.6632L12.4932 26.6032L13.0665 26.1365C14.8399 24.7315 17.0582 23.3332 19.9999 23.3332C22.9415 23.3332 25.1599 24.7332 26.9332 26.1365L27.5082 26.6032L28.7749 27.6632L29.4449 28.2098C30.8499 29.3265 31.9782 29.9998 33.3332 29.9998C33.8999 29.9998 34.1565 29.3548 34.2849 28.7348L34.3482 28.3715L34.4099 27.8432C34.6149 25.9332 34.2982 23.2348 33.5916 20.4048C32.9482 17.8282 32.0149 15.2848 30.9882 13.3148L30.3899 12.2148L30.1265 11.7598C29.6549 10.9748 29.0299 10.1298 28.3332 9.99984ZM14.1665 13.3332C15.2716 13.3332 16.3314 13.7722 17.1128 14.5536C17.8942 15.335 18.3332 16.3948 18.3332 17.4998C18.3332 18.6049 17.8942 19.6647 17.1128 20.4461C16.3314 21.2275 15.2716 21.6665 14.1665 21.6665C13.0615 21.6665 12.0017 21.2275 11.2203 20.4461C10.4389 19.6647 9.99988 18.6049 9.99988 17.4998C9.99988 16.3948 10.4389 15.335 11.2203 14.5536C12.0017 13.7722 13.0615 13.3332 14.1665 13.3332ZM25.8332 13.3332C26.2414 13.3332 26.6354 13.4831 26.9405 13.7544C27.2456 14.0256 27.4405 14.3994 27.4882 14.8048L27.4999 14.9998V15.8332H28.3332C28.758 15.8336 29.1666 15.9963 29.4755 16.2879C29.7844 16.5795 29.9703 16.9781 29.9952 17.4022C30.0201 17.8262 29.8821 18.2438 29.6094 18.5696C29.3368 18.8953 28.95 19.1047 28.5282 19.1548L28.3332 19.1665H27.4999V19.9998C27.4994 20.4246 27.3368 20.8332 27.0451 21.1421C26.7535 21.451 26.355 21.6369 25.9309 21.6618C25.5068 21.6867 25.0893 21.5487 24.7635 21.2761C24.4377 21.0034 24.2284 20.6167 24.1782 20.1948L24.1665 19.9998V19.1665H23.3332C22.9084 19.166 22.4998 19.0034 22.1909 18.7118C21.882 18.4201 21.6962 18.0216 21.6713 17.5975C21.6464 17.1734 21.7843 16.7559 22.057 16.4301C22.3296 16.1044 22.7164 15.895 23.1382 15.8448L23.3332 15.8332H24.1665V14.9998C24.1665 14.5578 24.3421 14.1339 24.6547 13.8213C24.9673 13.5088 25.3912 13.3332 25.8332 13.3332ZM14.1665 16.6665C13.9455 16.6665 13.7336 16.7543 13.5773 16.9106C13.421 17.0669 13.3332 17.2788 13.3332 17.4998C13.3332 17.7209 13.421 17.9328 13.5773 18.0891C13.7336 18.2454 13.9455 18.3332 14.1665 18.3332C14.3876 18.3332 14.5995 18.2454 14.7558 18.0891C14.9121 17.9328 14.9999 17.7209 14.9999 17.4998C14.9999 17.2788 14.9121 17.0669 14.7558 16.9106C14.5995 16.7543 14.3876 16.6665 14.1665 16.6665Z" fill="#0B2C3B"/>
</g>
<defs>
<clipPath id="clip0_889_992">
<rect width="40" height="40" fill="white"/>
</clipPath>
</defs>
</svg>
