<svg width="42" height="42" viewBox="0 0 42 42" fill="none" xmlns="http://www.w3.org/2000/svg">
<path d="M37.4061 28.1137L30.3711 20.9999L36.3036 15.0674C36.914 14.46 37.3983 13.7381 37.7288 12.943C38.0593 12.1479 38.2294 11.2953 38.2294 10.4343C38.2294 9.57324 38.0593 8.72068 37.7288 7.92558C37.3983 7.13048 36.914 6.40852 36.3036 5.80116C35.0735 4.57489 33.4074 3.8863 31.6705 3.8863C29.9336 3.8863 28.2675 4.57489 27.0374 5.80116L24.7011 8.11116L20.9999 11.8124L13.8599 4.59366C13.2421 3.99078 12.4131 3.65332 11.5499 3.65332C10.6867 3.65332 9.85767 3.99078 9.23988 4.59366L4.59363 9.23991C4.28806 9.54471 4.04562 9.9068 3.8802 10.3054C3.71479 10.7041 3.62964 11.1314 3.62964 11.563C3.62964 11.9946 3.71479 12.422 3.8802 12.8206C4.04562 13.2193 4.28806 13.5814 4.59363 13.8862L11.8124 20.9999L11.2349 21.5774L8.89863 23.8874L4.30488 33.4949C4.00757 34.1084 3.90873 34.7993 4.0221 35.4715C4.13547 36.1438 4.45541 36.764 4.93747 37.2461C5.41953 37.7281 6.03978 38.0481 6.71202 38.1614C7.38427 38.2748 8.07513 38.176 8.68863 37.8787L18.1911 33.2849L19.4774 31.9987L20.5011 30.9749L20.9999 30.3712L28.0349 37.4062C28.6527 38.009 29.4817 38.3465 30.3449 38.3465C31.2081 38.3465 32.0371 38.009 32.6549 37.4062L37.3011 32.7599C37.6137 32.4621 37.8644 32.1055 38.0389 31.7106C38.2134 31.3157 38.3082 30.8902 38.318 30.4586C38.3277 30.0269 38.2522 29.5976 38.0957 29.1953C37.9393 28.7929 37.7049 28.4253 37.4061 28.1137ZM31.6574 7.11366C32.5298 7.11084 33.3685 7.45011 33.9936 8.05866C34.2992 8.36346 34.5416 8.72555 34.7071 9.12419C34.8725 9.52283 34.9576 9.95019 34.9576 10.3818C34.9576 10.8134 34.8725 11.2407 34.7071 11.6394C34.5416 12.038 34.2992 12.4001 33.9936 12.7049L29.3474 8.18991C29.966 7.58769 30.7941 7.24892 31.6574 7.24491V7.11366ZM6.90363 11.5499L11.5499 6.92991L13.7024 9.08241L11.4186 11.3924L13.7286 13.7024L16.0386 11.3924L18.6636 14.0174L14.1224 18.7687L6.90363 11.5499ZM7.24488 34.9387L11.3661 26.4599L15.7499 30.8174L7.24488 34.9387ZM18.1911 28.6387L13.5449 23.9924L27.0374 10.4999L31.6574 15.1199L18.1911 28.6387ZM30.4499 35.0699L23.4149 28.0612L28.0611 23.4149L30.5024 25.8562L28.1924 28.1662L30.5024 30.5024L32.8386 28.1662L35.0961 30.4499L30.4499 35.0699Z" fill="#0B2C3B"/>
</svg>
