<svg width="40" height="40" viewBox="0 0 40 40" fill="none" xmlns="http://www.w3.org/2000/svg">
<path d="M9.29183 3.45688C9.50402 3.5589 9.68308 3.71878 9.8084 3.91811C9.93371 4.11743 10.0002 4.3481 10.0002 4.58354C10.0002 5.96688 10.5202 6.76354 11.1718 7.73354L11.2202 7.80354C11.7735 8.62688 12.5002 9.70521 12.5002 11.2502C12.5002 12.8269 11.7052 14.2169 10.4935 15.0419C10.8118 15.3085 11.0935 15.6369 11.3368 16.0302C12.1302 17.3135 12.5002 19.2752 12.5002 22.0919C12.5002 24.9452 12.1168 28.3719 11.4918 31.1085C11.1818 32.4685 10.7968 33.7235 10.3385 34.6652C10.1221 35.1337 9.83548 35.5665 9.4885 35.9485C9.14516 36.3002 8.61683 36.6752 7.91683 36.6752C7.21683 36.6752 6.6885 36.3002 6.34683 35.9485C5.99885 35.5673 5.71211 35.1344 5.49683 34.6652C5.03683 33.7219 4.65183 32.4685 4.34183 31.1069C3.69174 28.1448 3.35379 25.1227 3.3335 22.0902C3.3335 19.2735 3.7035 17.3135 4.49683 16.0302C4.72316 15.6577 5.0079 15.324 5.34016 15.0419C4.72145 14.6218 4.21506 14.0566 3.86525 13.3956C3.51544 12.7346 3.33287 11.998 3.3335 11.2502C3.3335 10.6369 3.3335 9.58188 3.97183 8.22021C4.59683 6.88688 5.78516 5.35521 7.9685 3.60688C8.15251 3.45968 8.37438 3.3675 8.60852 3.34096C8.84267 3.31442 9.07954 3.35461 9.29183 3.45688ZM5.8335 11.2485C5.8335 11.8011 6.05299 12.3326 6.44369 12.7233C6.83439 13.1141 7.3643 13.3335 7.91683 13.3335C8.46937 13.3335 8.99927 13.1141 9.38997 12.7233C9.78067 12.3326 10.0002 11.8027 10.0002 11.2502C10.0002 10.5185 9.69183 10.0119 9.09683 9.12688L9.07683 9.09688C8.69516 8.53021 8.2435 7.85854 7.9235 6.99688C7.0185 7.91688 6.5185 8.68021 6.23683 9.28021C5.8335 10.1402 5.8335 10.7535 5.8335 11.2485ZM6.6235 17.3419C6.21016 18.0119 5.8335 19.3852 5.8335 22.0902C5.8335 24.7585 6.19683 27.9985 6.7785 30.5502C7.07183 31.8335 7.40516 32.8752 7.7435 33.5685C7.80516 33.6969 7.8635 33.8035 7.91683 33.8935C7.97016 33.8035 8.0285 33.6969 8.09016 33.5685C8.4285 32.8752 8.76183 31.8319 9.05516 30.5502C9.6385 28.0002 10.0002 24.7602 10.0002 22.0902C10.0002 19.3852 9.6235 18.0119 9.21016 17.3419C9.08551 17.1163 8.89709 16.9325 8.6685 16.8135C8.43181 16.7105 8.17476 16.6626 7.91683 16.6735C7.5835 16.6735 7.34516 16.7252 7.16516 16.8135C6.93657 16.9325 6.74815 17.1163 6.6235 17.3419ZM16.6668 24.8635C15.7838 24.7154 14.9249 24.4486 14.1135 24.0702C14.1623 23.1249 14.1762 22.1782 14.1552 21.2319C14.9068 21.7369 15.7552 22.1085 16.6668 22.3152V17.5002C16.6668 16.8372 16.9302 16.2013 17.3991 15.7324C17.8679 15.2636 18.5038 15.0002 19.1668 15.0002H25.8335C25.8334 13.6014 25.4421 12.2304 24.7039 11.0423C23.9656 9.85412 22.9097 8.89612 21.6556 8.27651C20.4015 7.6569 18.999 7.40037 17.6068 7.53591C16.2145 7.67146 14.8879 8.19367 13.7768 9.04354C13.4435 8.12188 12.9685 7.41688 12.6385 6.92688L12.5718 6.82688C14.0693 5.77129 15.8279 5.14736 17.6558 5.02319C19.4837 4.89903 21.3105 5.2794 22.9369 6.1228C24.5634 6.96619 25.9268 8.24018 26.8785 9.80571C27.8302 11.3712 28.3335 13.1681 28.3335 15.0002H34.1668C34.8299 15.0002 35.4658 15.2636 35.9346 15.7324C36.4034 16.2013 36.6668 16.8372 36.6668 17.5002V32.5002C36.6668 33.1633 36.4034 33.7991 35.9346 34.268C35.4658 34.7368 34.8299 35.0002 34.1668 35.0002H19.1668C18.5038 35.0002 17.8679 34.7368 17.3991 34.268C16.9302 33.7991 16.6668 33.1633 16.6668 32.5002V24.8635ZM19.1668 24.9685V32.5019H34.1668V17.5019H28.0168C27.4976 19.5102 26.367 21.3076 24.7815 22.6453C23.196 23.9829 21.234 24.7948 19.1668 24.9685ZM25.4068 17.5019H19.1668V22.4569C20.5672 22.2999 21.895 21.7519 22.9985 20.8756C24.102 19.9994 24.9366 18.8302 25.4068 17.5019Z" fill="#0B2C3B"/>
</svg>
