<svg width="40" height="40" viewBox="0 0 40 40" fill="none" xmlns="http://www.w3.org/2000/svg">
<path d="M18.3335 32.4585L10.0002 27.6668C9.47238 27.3613 9.06294 26.9585 8.77183 26.4585C8.48072 25.9585 8.33461 25.4029 8.3335 24.7918V15.2085C8.3335 14.5974 8.47961 14.0418 8.77183 13.5418C9.06405 13.0418 9.4735 12.6391 10.0002 12.3335L18.3335 7.54183C18.8613 7.23627 19.4168 7.0835 20.0002 7.0835C20.5835 7.0835 21.1391 7.23627 21.6668 7.54183L30.0002 12.3335C30.5279 12.6391 30.9379 13.0418 31.2302 13.5418C31.5224 14.0418 31.6679 14.5974 31.6668 15.2085V24.7918C31.6668 25.4029 31.5213 25.9585 31.2302 26.4585C30.9391 26.9585 30.5291 27.3613 30.0002 27.6668L21.6668 32.4585C21.1391 32.7641 20.5835 32.9168 20.0002 32.9168C19.4168 32.9168 18.8613 32.7641 18.3335 32.4585ZM18.3335 28.6252V20.9585L11.6668 17.0835V24.7918L18.3335 28.6252ZM21.6668 28.6252L28.3335 24.7918V17.0835L21.6668 20.9585V28.6252ZM3.3335 11.6668V6.66683C3.3335 5.75016 3.66016 4.96572 4.3135 4.3135C4.96683 3.66127 5.75127 3.33461 6.66683 3.3335H11.6668V6.66683H6.66683V11.6668H3.3335ZM11.6668 36.6668H6.66683C5.75016 36.6668 4.96572 36.3407 4.3135 35.6885C3.66127 35.0363 3.33461 34.2513 3.3335 33.3335V28.3335H6.66683V33.3335H11.6668V36.6668ZM28.3335 36.6668V33.3335H33.3335V28.3335H36.6668V33.3335C36.6668 34.2502 36.3407 35.0352 35.6885 35.6885C35.0363 36.3418 34.2513 36.6679 33.3335 36.6668H28.3335ZM33.3335 11.6668V6.66683H28.3335V3.3335H33.3335C34.2502 3.3335 35.0352 3.66016 35.6885 4.3135C36.3418 4.96683 36.6679 5.75127 36.6668 6.66683V11.6668H33.3335ZM20.0002 18.0835L26.5835 14.2085L20.0002 10.4168L13.4168 14.2085L20.0002 18.0835Z" fill="#0B2C3B"/>
</svg>
