<svg width="32" height="33" viewBox="0 0 32 33" fill="none" xmlns="http://www.w3.org/2000/svg">
<path d="M17.3708 3.1665C18.8708 3.1705 19.6321 3.1785 20.2894 3.19717L20.5481 3.2065C20.8468 3.21717 21.1414 3.2305 21.4974 3.2465C22.9161 3.31317 23.8841 3.53717 24.7334 3.8665C25.6135 4.20517 26.3548 4.66384 27.0961 5.40384C27.7741 6.07037 28.2987 6.87662 28.6335 7.7665C28.9628 8.61584 29.1868 9.58384 29.2535 11.0038C29.2695 11.3585 29.2828 11.6532 29.2935 11.9532L29.3015 12.2118C29.3215 12.8678 29.3295 13.6292 29.3321 15.1292L29.3335 16.1238V17.8705C29.3367 18.843 29.3265 19.8156 29.3028 20.7878L29.2948 21.0465C29.2841 21.3465 29.2708 21.6412 29.2548 21.9958C29.1881 23.4158 28.9615 24.3825 28.6335 25.2332C28.2997 26.1235 27.7749 26.93 27.0961 27.5958C26.4294 28.2736 25.6232 28.7982 24.7334 29.1332C23.8841 29.4625 22.9161 29.6865 21.4974 29.7532C21.1811 29.7681 20.8646 29.7814 20.5481 29.7932L20.2894 29.8012C19.6321 29.8198 18.8708 29.8292 17.3708 29.8318L16.3761 29.8332H14.6308C13.6578 29.8365 12.6848 29.8263 11.7121 29.8025L11.4535 29.7945C11.1369 29.7825 10.8205 29.7687 10.5041 29.7532C9.08545 29.6865 8.11745 29.4625 7.26678 29.1332C6.37701 28.799 5.57107 28.2743 4.90545 27.5958C4.22685 26.9296 3.70175 26.1233 3.36678 25.2332C3.03745 24.3838 2.81345 23.4158 2.74678 21.9958C2.73193 21.6795 2.7186 21.363 2.70678 21.0465L2.70012 20.7878C2.67555 19.8156 2.66444 18.8431 2.66678 17.8705V15.1292C2.66306 14.1566 2.67284 13.1841 2.69612 12.2118L2.70545 11.9532C2.71612 11.6532 2.72945 11.3585 2.74545 11.0038C2.81212 9.58384 3.03612 8.61717 3.36545 7.7665C3.70027 6.87571 4.22641 6.0692 4.90678 5.40384C5.57224 4.7258 6.37764 4.20115 7.26678 3.8665C8.11745 3.53717 9.08412 3.31317 10.5041 3.2465C10.8588 3.2305 11.1548 3.21717 11.4535 3.2065L11.7121 3.1985C12.6844 3.17481 13.6569 3.16459 14.6295 3.16784L17.3708 3.1665ZM16.0001 9.83317C14.232 9.83317 12.5363 10.5355 11.2861 11.7858C10.0358 13.036 9.33345 14.7317 9.33345 16.4998C9.33345 18.2679 10.0358 19.9636 11.2861 21.2139C12.5363 22.4641 14.232 23.1665 16.0001 23.1665C17.7682 23.1665 19.4639 22.4641 20.7142 21.2139C21.9644 19.9636 22.6668 18.2679 22.6668 16.4998C22.6668 14.7317 21.9644 13.036 20.7142 11.7858C19.4639 10.5355 17.7682 9.83317 16.0001 9.83317ZM16.0001 12.4998C16.5254 12.4998 17.0456 12.6031 17.5309 12.8041C18.0162 13.005 18.4572 13.2996 18.8287 13.6709C19.2002 14.0423 19.4949 14.4832 19.696 14.9685C19.8971 15.4538 20.0007 15.9739 20.0008 16.4992C20.0009 17.0245 19.8975 17.5446 19.6966 18.03C19.4956 18.5153 19.2011 18.9563 18.8297 19.3278C18.4583 19.6993 18.0174 19.994 17.5321 20.1951C17.0469 20.3962 16.5267 20.4998 16.0015 20.4998C14.9406 20.4998 13.9232 20.0784 13.173 19.3283C12.4229 18.5781 12.0015 17.5607 12.0015 16.4998C12.0015 15.439 12.4229 14.4216 13.173 13.6714C13.9232 12.9213 14.9406 12.4998 16.0015 12.4998M23.0014 7.83317C22.5594 7.83317 22.1355 8.00877 21.8229 8.32133C21.5104 8.63389 21.3348 9.05781 21.3348 9.49984C21.3348 9.94186 21.5104 10.3658 21.8229 10.6783C22.1355 10.9909 22.5594 11.1665 23.0014 11.1665C23.4435 11.1665 23.8674 10.9909 24.18 10.6783C24.4925 10.3658 24.6681 9.94186 24.6681 9.49984C24.6681 9.05781 24.4925 8.63389 24.18 8.32133C23.8674 8.00877 23.4435 7.83317 23.0014 7.83317Z" fill="white"/>
</svg>
