<svg width="36" height="37" viewBox="0 0 36 37" fill="none" xmlns="http://www.w3.org/2000/svg">
<path d="M3 5.64875C3 4.46188 3.98625 3.5 5.20312 3.5H30.7969C32.0138 3.5 33 4.46188 33 5.64875V31.3512C33 32.5381 32.0138 33.5 30.7969 33.5H5.20312C3.98625 33.5 3 32.5381 3 31.3512V5.64875ZM12.2681 28.6138V15.0669H7.76625V28.6138H12.2681ZM10.0181 13.2163C11.5875 13.2163 12.5644 12.1775 12.5644 10.8763C12.5363 9.54688 11.5894 8.53625 10.0481 8.53625C8.50688 8.53625 7.5 9.54875 7.5 10.8763C7.5 12.1775 8.47687 13.2163 9.98812 13.2163H10.0181ZM19.2206 28.6138V21.0481C19.2206 20.6431 19.2506 20.2381 19.3706 19.9494C19.695 19.1412 20.4356 18.3031 21.6806 18.3031C23.31 18.3031 23.9606 19.5444 23.9606 21.3669V28.6138H28.4625V20.8438C28.4625 16.6812 26.2425 14.7463 23.28 14.7463C20.8913 14.7463 19.8206 16.0588 19.2206 16.9831V17.03H19.1906L19.2206 16.9831V15.0669H14.7206C14.7769 16.3381 14.7206 28.6138 14.7206 28.6138H19.2206Z" fill="white"/>
</svg>
