<svg width="149" height="55" viewBox="0 0 149 55" fill="none" xmlns="http://www.w3.org/2000/svg">
<path d="M13.02 21.328C13.02 21.5333 12.4413 21.7013 11.284 21.832C10.1453 21.944 8.99733 22 7.84 22C6.70133 22 5.97333 21.9533 5.656 21.86C5.35733 21.748 5.208 21.5707 5.208 21.328V9.288H1.316C1.11067 9.288 0.933333 9.02667 0.784 8.504C0.634667 7.98133 0.56 7.20667 0.56 6.18C0.56 5.13467 0.672 4.20133 0.896 3.38C1.12 2.54 1.41867 2.12 1.792 2.12H16.94C17.22 2.12 17.4067 2.38133 17.5 2.904C17.612 3.42667 17.668 4.18267 17.668 5.172C17.668 6.16133 17.5653 7.09467 17.36 7.972C17.1547 8.84933 16.8747 9.288 16.52 9.288H13.02V21.328ZM26.9183 7.524V21.328C26.9183 21.5333 26.3769 21.7013 25.2943 21.832C24.2303 21.944 23.1289 22 21.9903 22C20.8703 22 20.1423 21.9533 19.8063 21.86C19.4889 21.748 19.3303 21.5707 19.3303 21.328V8.028C19.3303 7.61733 19.8529 7.216 20.8983 6.824C21.9623 6.41333 23.1196 6.208 24.3703 6.208C26.0689 6.208 26.9183 6.64667 26.9183 7.524ZM23.1103 0.159999C24.3423 0.159999 25.3036 0.346666 25.9943 0.719999C26.7036 1.07467 27.0583 1.728 27.0583 2.68C27.0583 4.36 25.7516 5.2 23.1383 5.2C20.5249 5.2 19.2183 4.36 19.2183 2.68C19.2183 0.999999 20.5156 0.159999 23.1103 0.159999ZM36.7073 7.524V21.328C36.7073 21.5333 36.166 21.7013 35.0833 21.832C34.0193 21.944 32.918 22 31.7793 22C30.6593 22 29.9313 21.9533 29.5953 21.86C29.278 21.748 29.1193 21.5707 29.1193 21.328V8.028C29.1193 7.61733 29.642 7.216 30.6873 6.824C31.7513 6.41333 32.9087 6.208 34.1593 6.208C35.858 6.208 36.7073 6.64667 36.7073 7.524ZM32.8993 0.159999C34.1313 0.159999 35.0927 0.346666 35.7833 0.719999C36.4927 1.07467 36.8473 1.728 36.8473 2.68C36.8473 4.36 35.5407 5.2 32.9273 5.2C30.314 5.2 29.0073 4.36 29.0073 2.68C29.0073 0.999999 30.3047 0.159999 32.8993 0.159999ZM44.1164 22.252C42.4177 22.252 41.0831 21.8507 40.1124 21.048C39.7204 20.712 39.3751 20.2173 39.0764 19.564C38.7964 18.9107 38.6564 18.1453 38.6564 17.268C38.6564 16.3907 38.8617 15.6253 39.2724 14.972C39.7017 14.3187 40.2151 13.8147 40.8124 13.46C41.4097 13.1053 42.1097 12.816 42.9124 12.592C44.1257 12.2747 45.4604 12.116 46.9164 12.116H47.8404C47.8404 11.3507 47.5791 10.8093 47.0564 10.492C46.8324 10.3613 46.4871 10.296 46.0204 10.296C45.5724 10.296 45.0217 10.4173 44.3684 10.66C43.7337 10.9027 43.2017 11.1547 42.7724 11.416C42.3431 11.6587 42.0537 11.78 41.9044 11.78C41.5684 11.78 41.1111 11.3413 40.5324 10.464C39.9537 9.568 39.6644 8.756 39.6644 8.028C39.6644 7.78533 40.0097 7.468 40.7004 7.076C41.3911 6.684 42.3617 6.32933 43.6124 6.012C44.8817 5.676 46.1137 5.508 47.3084 5.508C48.5031 5.508 49.5297 5.61067 50.3884 5.816C51.2657 6.00267 51.9751 6.236 52.5164 6.516C53.0764 6.796 53.5431 7.16933 53.9164 7.636C54.3084 8.10267 54.5977 8.52267 54.7844 8.896C54.9897 9.26933 55.1391 9.75467 55.2324 10.352C55.3631 11.0427 55.4284 11.892 55.4284 12.9V21.328C55.4284 21.5333 54.9244 21.7013 53.9164 21.832C52.9271 21.944 51.9377 22 50.9484 22C49.9777 22 49.3431 21.972 49.0444 21.916C48.7644 21.86 48.5964 21.7947 48.5404 21.72C48.4844 21.6453 48.4377 21.5147 48.4004 21.328L48.1764 19.732H47.9524C47.4857 21.412 46.2071 22.252 44.1164 22.252ZM47.8684 17.604V14.328C47.3831 14.328 46.9911 14.5333 46.6924 14.944C46.3937 15.3547 46.2444 15.8213 46.2444 16.344C46.2444 17.576 46.5244 18.192 47.0844 18.192C47.3271 18.192 47.5137 18.136 47.6444 18.024C47.7937 17.8933 47.8684 17.7533 47.8684 17.604ZM13.02 53.328C13.02 53.5333 12.4413 53.7013 11.284 53.832C10.1453 53.944 8.99733 54 7.84 54C6.70133 54 5.97333 53.9533 5.656 53.86C5.35733 53.748 5.208 53.5707 5.208 53.328V41.288H1.316C1.11067 41.288 0.933333 41.0267 0.784 40.504C0.634667 39.9813 0.56 39.2067 0.56 38.18C0.56 37.1347 0.672 36.2013 0.896 35.38C1.12 34.54 1.41867 34.12 1.792 34.12H16.94C17.22 34.12 17.4067 34.3813 17.5 34.904C17.612 35.4267 17.668 36.1827 17.668 37.172C17.668 38.1613 17.5653 39.0947 17.36 39.972C17.1547 40.8493 16.8747 41.288 16.52 41.288H13.02V53.328ZM24.8463 54.252C22.7556 54.252 21.2903 53.7107 20.4503 52.628C19.6289 51.5453 19.2183 49.66 19.2183 46.972V39.356C19.2183 38.9827 19.7689 38.628 20.8703 38.292C21.9716 37.9373 23.1289 37.76 24.3423 37.76C25.9663 37.76 26.7783 38.18 26.7783 39.02V46.132C26.7783 47.5507 26.8343 48.5867 26.9463 49.24C27.0583 49.8747 27.3383 50.192 27.7863 50.192C28.3836 50.192 28.6823 49.94 28.6823 49.436V39.356C28.6823 38.964 29.2609 38.6 30.4183 38.264C31.5756 37.928 32.8356 37.76 34.1983 37.76C35.5609 37.76 36.2423 38.124 36.2423 38.852V53.272C36.2423 53.5333 35.6543 53.72 34.4783 53.832C33.3023 53.944 32.1449 54 31.0063 54C29.8676 54 29.2889 53.8507 29.2703 53.552L28.9903 51.732H28.7663C28.5983 52.404 28.2623 52.9547 27.7583 53.384C27.4969 53.608 27.1049 53.8133 26.5823 54C26.0783 54.168 25.4996 54.252 24.8463 54.252ZM46.8188 54.252C45.4188 54.252 44.2148 54.1307 43.2068 53.888C42.1988 53.6453 41.2842 53.216 40.4628 52.6C38.7642 51.368 37.9148 49.072 37.9148 45.712C37.9148 42.7253 38.7828 40.588 40.5188 39.3C42.1428 38.1053 44.2428 37.508 46.8188 37.508C47.9202 37.508 48.8628 37.564 49.6468 37.676C50.4308 37.7693 51.2242 37.984 52.0268 38.32C52.8482 38.656 53.5015 39.1133 53.9868 39.692C54.4908 40.2707 54.9015 41.0733 55.2188 42.1C55.5362 43.108 55.6948 44.312 55.6948 45.712C55.6948 48.5493 54.8922 50.6867 53.2868 52.124C51.6815 53.5427 49.5255 54.252 46.8188 54.252ZM45.8388 48.792C45.9695 49.464 46.1002 49.8653 46.2308 49.996C46.3802 50.1267 46.5668 50.192 46.7908 50.192C47.0335 50.192 47.2202 50.1267 47.3508 49.996C47.5002 49.8653 47.6308 49.464 47.7428 48.792C47.8735 48.12 47.9388 47.28 47.9388 46.272C47.9388 45.2453 47.9108 44.4613 47.8548 43.92C47.8175 43.36 47.7615 42.9307 47.6868 42.632C47.6308 42.3333 47.5468 42.1 47.4348 41.932C47.2668 41.6893 47.0615 41.568 46.8188 41.568C46.5948 41.568 46.4082 41.6427 46.2588 41.792C46.1095 41.9227 45.9695 42.3333 45.8388 43.024C45.7082 43.696 45.6428 44.6573 45.6428 45.908C45.6428 47.1587 45.7082 48.12 45.8388 48.792ZM82.8708 44.76V53.328C82.8708 53.5333 82.3388 53.7013 81.2748 53.832C80.2295 53.944 79.1375 54 77.9988 54C76.8788 54 76.1508 53.9533 75.8148 53.86C75.4788 53.748 75.3108 53.5707 75.3108 53.328V45.572C75.3108 42.9027 75.0401 41.568 74.4988 41.568C74.3681 41.568 74.2375 41.624 74.1068 41.736C73.9761 41.848 73.9108 42.044 73.9108 42.324V53.328C73.9108 53.5333 73.3788 53.7013 72.3148 53.832C71.2695 53.944 70.1775 54 69.0388 54C67.9001 54 67.1628 53.9533 66.8268 53.86C66.5095 53.748 66.3508 53.5707 66.3508 53.328V45.572C66.3508 43.5 66.2201 42.2587 65.9588 41.848C65.8281 41.6613 65.6601 41.568 65.4548 41.568C65.1001 41.568 64.9228 41.82 64.9228 42.324V53.328C64.9228 53.5333 64.3908 53.7013 63.3268 53.832C62.2628 53.944 61.1615 54 60.0228 54C58.9028 54 58.1748 53.9533 57.8388 53.86C57.5215 53.748 57.3628 53.5707 57.3628 53.328V39.524C57.3628 39.132 57.8948 38.74 58.9588 38.348C60.0415 37.956 61.1801 37.76 62.3748 37.76C63.5695 37.76 64.2415 38.1053 64.3908 38.796L64.6428 40.028H64.8388C65.3801 38.964 66.2761 38.208 67.5268 37.76C68.0495 37.592 68.7215 37.508 69.5428 37.508C71.1855 37.508 72.3801 38.348 73.1268 40.028C73.3695 39.468 73.9761 38.908 74.9468 38.348C75.9175 37.788 76.9908 37.508 78.1668 37.508C80.0148 37.508 81.2561 38.0867 81.8908 39.244C82.5441 40.3827 82.8708 42.2213 82.8708 44.76ZM92.5433 39.524V53.328C92.5433 53.5333 92.0019 53.7013 90.9193 53.832C89.8553 53.944 88.7539 54 87.6153 54C86.4953 54 85.7673 53.9533 85.4313 53.86C85.1139 53.748 84.9553 53.5707 84.9553 53.328V40.028C84.9553 39.6173 85.4779 39.216 86.5233 38.824C87.5873 38.4133 88.7446 38.208 89.9953 38.208C91.6939 38.208 92.5433 38.6467 92.5433 39.524ZM88.7353 32.16C89.9673 32.16 90.9286 32.3467 91.6193 32.72C92.3286 33.0747 92.6833 33.728 92.6833 34.68C92.6833 36.36 91.3766 37.2 88.7633 37.2C86.1499 37.2 84.8433 36.36 84.8433 34.68C84.8433 33 86.1406 32.16 88.7353 32.16ZM111.516 44.704V53.328C111.516 53.5333 110.984 53.7013 109.92 53.832C108.856 53.944 107.755 54 106.616 54C105.496 54 104.768 53.9533 104.432 53.86C104.115 53.748 103.956 53.5707 103.956 53.328V44.424C103.956 43.584 103.919 43.0333 103.844 42.772C103.788 42.5107 103.732 42.2773 103.676 42.072C103.546 41.7173 103.312 41.54 102.976 41.54C102.454 41.54 102.192 41.792 102.192 42.296V53.328C102.192 53.5333 101.66 53.7013 100.596 53.832C99.551 53.944 98.459 54 97.3203 54C96.2003 54 95.4723 53.9533 95.1363 53.86C94.8003 53.748 94.6323 53.5707 94.6323 53.328V39.524C94.6323 39.132 95.1643 38.74 96.2283 38.348C97.311 37.956 98.4497 37.76 99.6443 37.76C100.839 37.76 101.511 38.1053 101.66 38.796L101.912 40.028H102.108C102.65 38.9453 103.583 38.1893 104.908 37.76C105.45 37.592 106.047 37.508 106.7 37.508C108.586 37.508 109.855 38.0773 110.508 39.216C111.18 40.336 111.516 42.1653 111.516 44.704ZM120.836 47.672C120.836 48.8853 121.415 49.492 122.572 49.492C123.244 49.492 124.122 49.268 125.204 48.82C126.287 48.3533 126.856 48.12 126.912 48.12C127.267 48.12 127.734 48.652 128.312 49.716C128.891 50.78 129.18 51.564 129.18 52.068C129.18 52.796 128.434 53.3467 126.94 53.72C125.447 54.0933 123.982 54.28 122.544 54.28C121.126 54.28 119.931 54.168 118.96 53.944C118.008 53.72 117.224 53.44 116.608 53.104C116.011 52.7493 115.479 52.32 115.012 51.816C114.564 51.312 114.228 50.836 114.004 50.388C113.78 49.9213 113.603 49.408 113.472 48.848C113.286 48.0267 113.192 47.1773 113.192 46.3C113.192 42.9027 114.079 40.56 115.852 39.272C116.73 38.6187 117.71 38.1613 118.792 37.9C119.875 37.6387 121.154 37.508 122.628 37.508C127.351 37.508 129.712 39.1507 129.712 42.436C129.712 45.9267 127.062 47.672 121.76 47.672H120.836ZM120.78 43.584V45.432C121.322 45.432 121.76 45.2173 122.096 44.788C122.451 44.3587 122.628 43.836 122.628 43.22C122.628 42.1 122.339 41.54 121.76 41.54C121.107 41.54 120.78 42.2213 120.78 43.584ZM148.266 44.704V53.328C148.266 53.5333 147.734 53.7013 146.67 53.832C145.606 53.944 144.505 54 143.366 54C142.246 54 141.518 53.9533 141.182 53.86C140.865 53.748 140.706 53.5707 140.706 53.328V44.424C140.706 43.584 140.669 43.0333 140.594 42.772C140.538 42.5107 140.482 42.2773 140.426 42.072C140.296 41.7173 140.062 41.54 139.726 41.54C139.204 41.54 138.942 41.792 138.942 42.296V53.328C138.942 53.5333 138.41 53.7013 137.346 53.832C136.301 53.944 135.209 54 134.07 54C132.95 54 132.222 53.9533 131.886 53.86C131.55 53.748 131.382 53.5707 131.382 53.328V39.524C131.382 39.132 131.914 38.74 132.978 38.348C134.061 37.956 135.2 37.76 136.394 37.76C137.589 37.76 138.261 38.1053 138.41 38.796L138.662 40.028H138.858C139.4 38.9453 140.333 38.1893 141.658 37.76C142.2 37.592 142.797 37.508 143.45 37.508C145.336 37.508 146.605 38.0773 147.258 39.216C147.93 40.336 148.266 42.1653 148.266 44.704Z" fill="white"/>
</svg>
