<svg width="22" height="22" viewBox="0 0 22 22" fill="none" xmlns="http://www.w3.org/2000/svg">
<path d="M12.0767 19.7507C11.9992 19.6718 11.9378 19.578 11.8958 19.4749C11.8539 19.3717 11.8323 19.2611 11.8323 19.1494C11.8323 19.0377 11.8539 18.9271 11.8958 18.8239C11.9378 18.7207 11.9992 18.627 12.0767 18.5481L18.1546 12.3498L1.8333 12.3498C1.6123 12.3498 1.40034 12.2603 1.24407 12.1009C1.08779 11.9415 1 11.7253 1 11.4999C1 11.2745 1.08779 11.0583 1.24407 10.8989C1.40034 10.7395 1.6123 10.65 1.83331 10.65L18.1546 10.65L12.0767 4.45175C11.9204 4.29227 11.8325 4.07596 11.8325 3.85042C11.8325 3.62487 11.9204 3.40856 12.0767 3.24908C12.2331 3.0896 12.4452 3 12.6663 3C12.8874 3 13.0995 3.0896 13.2558 3.24908L20.7556 10.8986C20.8331 10.9775 20.8945 11.0712 20.9365 11.1744C20.9784 11.2776 21 11.3882 21 11.4999C21 11.6116 20.9784 11.7222 20.9365 11.8254C20.8945 11.9286 20.8331 12.0223 20.7556 12.1012L13.2558 19.7507C13.1785 19.8297 13.0866 19.8924 12.9854 19.9352C12.8842 19.978 12.7758 20 12.6663 20C12.5568 20 12.4483 19.978 12.3472 19.9352C12.246 19.8924 12.1541 19.8297 12.0767 19.7507Z" fill="#F5EEE8"/>
</svg>
